# xmcd
#
# Track frame offsets:
#	150
#	18755
#	40276
#	56647
#	67341
#	86275
#	105474
#	117378
#	134298
#	151822
#	170958
#	186151
#	208198
#	226156
#
# Disc length: 3239 seconds
#
# Revision: 0
# Processed by: cddbd v1.5.2PL0 Copyright (c) Steve Scherf et al.
# Submitted via: audiograbber 1.83.01
#
DISCID=bf0ca50e
DTITLE=AWEK - Long Distance
DYEAR=2016
DGENRE=Blues
TTITLE0=Don't Leave Me Alone
TTITLE1=Long Distance
TTITLE2=Think
TTITLE3=We Met In Texas
TTITLE4=She Moves me
TTITLE5=Hound Dog
TTITLE6=L.A. Stomp
TTITLE7=I'm Gonna Hit That Highway
TTITLE8=Sunny Sunday
TTITLE9=Scratch Blues
TTITLE10=The Hustle Is On
TTITLE11=Take Out Some Insurance
TTITLE12=I Forgot To Forget You
TTITLE13=Jammin'With Fred and Derek
EXTD=
EXTT0=
EXTT1=
EXTT2=
EXTT3=
EXTT4=
EXTT5=
EXTT6=
EXTT7=
EXTT8=
EXTT9=
EXTT10=
EXTT11=
EXTT12=
EXTT13=
PLAYORDER=
